<svg width="264" height="166" viewBox="0 0 264 166" fill="none" xmlns="http://www.w3.org/2000/svg">
<path d="M173.406 42.7139C172.307 42.7139 172.307 42.7139 171.209 42.7139C167.913 32.828 158.028 25.1391 147.043 25.1391C143.748 25.1391 140.453 26.2375 137.158 27.3359C133.862 17.4501 123.976 10.8595 112.992 10.8595C102.008 10.8595 93.2205 17.4501 89.9253 27.3359C88.8268 27.3359 87.7284 27.3359 85.5315 27.3359C73.4489 27.3359 64.6615 36.1233 63.563 47.1076C62.4646 47.1076 60.2678 47.1076 58.0709 47.1076C43.7914 47.1076 32.8071 58.0918 32.8071 72.3714C32.8071 86.6509 43.7914 97.6351 58.0709 97.6351C58.0709 97.6351 58.0709 97.6351 59.1693 97.6351C61.3662 107.521 71.252 115.21 82.2363 115.21C91.0237 115.21 97.6142 110.816 102.008 104.226C107.5 114.112 117.386 119.604 129.469 119.604C142.65 119.604 153.634 111.915 159.126 100.93C163.52 103.127 169.012 105.324 174.504 105.324C190.98 105.324 205.26 92.143 205.26 74.5682C205.26 56.9934 189.882 42.7139 173.406 42.7139Z" fill="white"/>
<path d="M174.504 43.8123C173.405 43.8123 173.405 43.8123 172.307 43.8123C169.012 33.9264 159.126 26.2374 148.142 26.2374C144.846 26.2374 141.551 27.3359 138.256 28.4343C134.96 18.5485 125.075 11.9579 114.09 11.9579C103.106 11.9579 94.3187 18.5485 91.0234 28.4343C89.925 28.4343 88.8265 28.4343 86.6297 28.4343C74.547 28.4343 65.7596 37.2217 64.6612 48.206C63.5628 48.206 61.3659 48.206 59.1691 48.206C45.988 47.1075 33.9053 58.0918 33.9053 72.3713C33.9053 86.6509 44.8895 97.6351 59.1691 97.6351C59.1691 97.6351 59.1691 97.6351 60.2675 97.6351C62.4643 107.521 72.3502 115.21 83.3344 115.21C92.1218 115.21 98.7124 110.816 103.106 104.226C108.598 114.111 118.484 119.604 130.567 119.604C143.748 119.604 154.732 111.915 160.224 100.93C164.618 103.127 170.11 105.324 175.602 105.324C192.079 105.324 206.358 92.143 206.358 74.5682C204.161 58.0918 190.98 43.8123 174.504 43.8123Z" fill="#E9F2F5"/>
<path d="M114.09 33.9265C111.893 33.9265 108.598 33.9265 106.401 35.0249C103.106 18.5485 89.9247 6.46582 72.3499 5.3674C55.8736 4.26897 41.594 14.1548 36.1019 29.5328C22.9208 28.4343 10.8381 39.4186 9.73969 53.6981C9.73969 66.8792 19.6255 78.9619 33.905 80.0603C41.594 80.0603 48.1846 77.8635 52.5783 73.4698C56.972 75.6666 63.5625 77.8635 69.0547 77.8635C80.0389 78.9619 89.9247 74.5682 96.5153 66.8792C99.8106 72.3714 105.303 75.6666 111.893 75.6666C123.976 76.7651 133.862 66.8792 133.862 55.895C134.96 43.8123 126.173 33.9265 114.09 33.9265Z" fill="white"/>
</svg>
