<svg width="230" height="209" viewBox="0 0 230 209" fill="none" xmlns="http://www.w3.org/2000/svg">
<path d="M110.482 127.334C136.611 127.334 157.793 106.152 157.793 80.0231C157.793 53.8939 136.611 32.7119 110.482 32.7119C84.3527 32.7119 63.1707 53.8939 63.1707 80.0231C63.1707 106.152 84.3527 127.334 110.482 127.334Z" fill="#FFE3AB"/>
<path d="M159.806 81.0298C159.806 107.202 138.667 128.341 112.495 128.341C86.3229 128.341 64.1772 107.202 64.1772 81.0298C64.1772 54.8576 85.3163 32.7119 111.488 32.7119C137.661 32.7119 159.806 54.8576 159.806 81.0298Z" fill="url(#paint16_linear_2_1880)"/>
<path d="M155.78 111.228C154.773 111.228 154.773 111.228 153.767 111.228C150.747 103.175 142.694 97.1357 133.634 97.1357C130.614 97.1357 128.601 98.1423 125.581 98.1423C122.561 90.0893 115.515 85.0562 106.455 85.0562C98.4024 85.0562 91.3561 90.0893 88.3362 98.1423C87.3296 98.1423 86.323 98.1423 85.3164 98.1423C76.2568 98.1423 68.2038 105.189 67.1972 114.248C66.1906 114.248 64.1773 114.248 63.1707 114.248C52.0978 114.248 43.0383 123.308 43.0383 134.381C43.0383 145.454 52.0978 154.513 63.1707 154.513C63.1707 154.513 63.1707 154.513 64.1773 154.513C66.1906 162.566 73.2369 168.606 82.2965 168.606C89.3429 168.606 95.3826 164.579 98.4024 159.546C102.429 167.599 111.489 172.632 120.548 172.632C130.614 172.632 139.674 166.593 143.7 157.533C147.727 159.546 151.753 160.553 155.78 160.553C168.866 160.553 179.939 149.48 179.939 136.394C179.939 121.295 169.873 111.228 155.78 111.228Z" fill="white"/>
<path d="M156.787 111.228C155.78 111.228 155.78 111.228 154.773 111.228C151.753 103.175 143.7 97.1357 134.641 97.1357C131.621 97.1357 129.608 98.1423 126.588 98.1423C123.568 90.0893 116.522 85.0562 107.462 85.0562C99.4091 86.0629 92.3628 91.096 89.3429 98.1423C88.3363 98.1423 87.3297 98.1423 86.323 98.1423C77.2634 98.1423 69.2105 105.189 68.2039 114.248C67.1972 114.248 65.184 114.248 64.1774 114.248C53.1045 114.248 44.0449 123.308 44.0449 134.381C44.0449 145.454 53.1045 154.513 64.1774 154.513C64.1774 154.513 64.1774 154.513 65.184 154.513C67.1972 162.566 74.2436 168.606 83.3032 168.606C90.3495 168.606 96.3893 164.579 99.4091 159.546C103.436 167.599 112.495 172.632 121.555 172.632C131.621 172.632 140.681 166.593 144.707 157.533C148.734 159.546 152.76 160.553 156.787 160.553C169.873 160.553 180.945 149.48 180.945 136.394C180.945 122.301 169.873 111.228 156.787 111.228Z" fill="#E9F2F5"/>
<path d="M104.442 105.189C102.429 105.189 99.4091 105.189 97.3959 106.195C94.376 92.1026 82.2965 81.0298 66.1906 80.0231C51.0913 79.0165 38.0052 88.0761 32.9721 102.169C20.8926 101.162 9.81977 111.228 8.81315 124.314C7.80653 137.401 17.8727 148.473 30.9588 148.473C38.0052 148.473 44.0449 146.46 48.0714 142.434C52.0979 145.454 57.131 146.46 63.1707 146.46C73.2369 147.467 82.2965 143.44 88.3363 136.394C91.3561 140.42 96.3892 143.44 102.429 143.44C113.502 144.447 122.561 135.387 122.561 125.321C123.568 115.255 115.515 106.195 104.442 105.189Z" fill="white"/>
<defs>
<linearGradient id="paint0_linear_2_1880" x1="103.18" y1="13.8378" x2="119.998" y2="30.6554" gradientUnits="userSpaceOnUse">
<stop stop-color="#FFD45C"/>
<stop offset="1" stop-color="#FF9D00"/>
</linearGradient>
<linearGradient id="paint1_linear_2_1880" x1="103.18" y1="131.053" x2="119.998" y2="147.87" gradientUnits="userSpaceOnUse">
<stop stop-color="#FFD45C"/>
<stop offset="1" stop-color="#FF9D00"/>
</linearGradient>
<linearGradient id="paint2_linear_2_1880" x1="44.5714" y1="72.4423" x2="61.389" y2="89.2599" gradientUnits="userSpaceOnUse">
<stop stop-color="#FFD45C"/>
<stop offset="1" stop-color="#FF9D00"/>
</linearGradient>
<linearGradient id="paint3_linear_2_1880" x1="161.783" y1="72.4423" x2="178.601" y2="89.2599" gradientUnits="userSpaceOnUse">
<stop stop-color="#FFD45C"/>
<stop offset="1" stop-color="#FF9D00"/>
</linearGradient>
<linearGradient id="paint4_linear_2_1880" x1="64.085" y1="116.223" x2="76.2145" y2="128.353" gradientUnits="userSpaceOnUse">
<stop stop-color="#FFD45C"/>
<stop offset="1" stop-color="#FF9D00"/>
</linearGradient>
<linearGradient id="paint5_linear_2_1880" x1="146.963" y1="33.3445" x2="159.093" y2="45.474" gradientUnits="userSpaceOnUse">
<stop stop-color="#FFD45C"/>
<stop offset="1" stop-color="#FF9D00"/>
</linearGradient>
<linearGradient id="paint6_linear_2_1880" x1="141.163" y1="110.423" x2="164.894" y2="134.154" gradientUnits="userSpaceOnUse">
<stop stop-color="#FFD45C"/>
<stop offset="1" stop-color="#FF9D00"/>
</linearGradient>
<linearGradient id="paint7_linear_2_1880" x1="58.2848" y1="27.5444" x2="82.0156" y2="51.2753" gradientUnits="userSpaceOnUse">
<stop stop-color="#FFD45C"/>
<stop offset="1" stop-color="#FF9D00"/>
</linearGradient>
<linearGradient id="paint8_linear_2_1880" x1="156.968" y1="94.5114" x2="174.505" y2="112.049" gradientUnits="userSpaceOnUse">
<stop stop-color="#FFBB31"/>
<stop offset="1" stop-color="#FF9D00"/>
</linearGradient>
<linearGradient id="paint9_linear_2_1880" x1="48.6773" y1="49.6564" x2="66.2137" y2="67.1927" gradientUnits="userSpaceOnUse">
<stop stop-color="#FFBB31"/>
<stop offset="1" stop-color="#FF9D00"/>
</linearGradient>
<linearGradient id="paint10_linear_2_1880" x1="80.39" y1="17.9337" x2="97.9293" y2="35.4731" gradientUnits="userSpaceOnUse">
<stop stop-color="#FFBB31"/>
<stop offset="1" stop-color="#FF9D00"/>
</linearGradient>
<linearGradient id="paint11_linear_2_1880" x1="125.246" y1="126.228" x2="142.783" y2="143.765" gradientUnits="userSpaceOnUse">
<stop stop-color="#FFBB31"/>
<stop offset="1" stop-color="#FF9D00"/>
</linearGradient>
<linearGradient id="paint12_linear_2_1880" x1="52.2448" y1="98.0829" x2="62.6392" y2="108.477" gradientUnits="userSpaceOnUse">
<stop stop-color="#FFBB31"/>
<stop offset="1" stop-color="#FF9D00"/>
</linearGradient>
<linearGradient id="paint13_linear_2_1880" x1="160.534" y1="53.2269" x2="170.93" y2="63.6222" gradientUnits="userSpaceOnUse">
<stop stop-color="#FFBB31"/>
<stop offset="1" stop-color="#FF9D00"/>
</linearGradient>
<linearGradient id="paint14_linear_2_1880" x1="83.9655" y1="129.802" x2="94.3568" y2="140.193" gradientUnits="userSpaceOnUse">
<stop stop-color="#FFBB31"/>
<stop offset="1" stop-color="#FF9D00"/>
</linearGradient>
<linearGradient id="paint15_linear_2_1880" x1="128.82" y1="21.5082" x2="139.212" y2="31.8996" gradientUnits="userSpaceOnUse">
<stop stop-color="#FFBB31"/>
<stop offset="1" stop-color="#FF9D00"/>
</linearGradient>
<linearGradient id="paint16_linear_2_1880" x1="77.8049" y1="47.0684" x2="145.371" y2="114.635" gradientUnits="userSpaceOnUse">
<stop stop-color="#FFD45C"/>
<stop offset="1" stop-color="#FF9D00"/>
</linearGradient>
</defs>
</svg>
