<svg width="160" height="222" viewBox="0 0 160 222" fill="none" xmlns="http://www.w3.org/2000/svg">
<path d="M59.9102 64.6165C59.9102 80.5697 46.8576 93.6224 30.9044 93.6224C14.9512 93.6224 0.448303 80.5697 0.448303 64.6165C0.448303 37.061 30.9044 0.803711 30.9044 0.803711H32.3547V2.254C39.6062 10.9558 59.9102 44.3125 59.9102 64.6165Z" fill="#C4F1FF"/>
<path d="M61.3607 66.0668C61.3607 82.02 48.3081 95.0726 32.3549 95.0726C16.4017 95.0726 3.34909 82.02 3.34909 66.0668C3.34909 42.8622 32.3549 0.803711 32.3549 0.803711C32.3549 0.803711 61.3607 41.4119 61.3607 66.0668Z" fill="url(#paint0_linear_2_2487)"/>
<path d="M39.6064 177.739C39.6064 187.891 30.9046 195.143 22.2029 195.143C13.5011 195.143 3.34909 186.441 3.34909 177.739C3.34909 160.336 22.2029 138.581 22.2029 138.581H23.6532V140.032C28.004 144.383 39.6064 164.687 39.6064 177.739Z" fill="#C4F1FF"/>
<path d="M42.5068 179.19C42.5068 189.342 33.805 196.593 25.1033 196.593C14.9512 196.593 7.69977 187.891 7.69977 179.19C7.69977 164.687 25.1033 138.581 25.1033 138.581C25.1033 138.581 42.5068 163.236 42.5068 179.19Z" fill="url(#paint1_linear_2_2487)"/>
<path d="M113.571 126.979C113.571 138.581 103.419 148.733 91.8164 148.733C80.2141 148.733 70.0621 138.581 70.0621 126.979C70.0621 106.675 91.8164 80.5697 91.8164 80.5697L93.2667 79.1194V80.5697C97.6176 87.8212 113.571 112.476 113.571 126.979Z" fill="#C4F1FF"/>
<path d="M115.021 128.429C115.021 140.032 104.869 150.184 93.2668 150.184C81.6645 150.184 71.5125 140.032 71.5125 128.429C71.5125 111.026 93.2668 80.5697 93.2668 80.5697C93.2668 80.5697 115.021 109.576 115.021 128.429Z" fill="url(#paint2_linear_2_2487)"/>
<defs>
<linearGradient id="paint0_linear_2_2487" x1="6.35119" y1="27.3063" x2="59.3564" y2="80.3116" gradientUnits="userSpaceOnUse">
<stop stop-color="#6BD9FF"/>
<stop offset="1" stop-color="#3EC9F7"/>
</linearGradient>
<linearGradient id="paint1_linear_2_2487" x1="7.24728" y1="154.295" x2="40.3777" y2="187.424" gradientUnits="userSpaceOnUse">
<stop stop-color="#6BD9FF"/>
<stop offset="1" stop-color="#3EC9F7"/>
</linearGradient>
<linearGradient id="paint2_linear_2_2487" x1="73.6183" y1="99.2756" x2="113.044" y2="138.7" gradientUnits="userSpaceOnUse">
<stop stop-color="#6BD9FF"/>
<stop offset="1" stop-color="#3EC9F7"/>
</linearGradient>
</defs>
</svg>
