<svg width="246" height="187" viewBox="0 0 246 187" fill="none" xmlns="http://www.w3.org/2000/svg">
<path d="M182.09 82.9558C180.162 77.1738 177.271 72.3555 172.453 68.5008C173.417 64.6461 174.38 61.7551 174.38 57.9005C175.344 39.5908 160.889 25.1359 143.543 24.1722C130.052 23.2085 117.524 31.8815 112.706 43.4455C111.742 43.4455 110.779 43.4455 109.815 43.4455C97.2873 42.4818 87.6506 48.2638 80.905 56.9368C78.9776 55.9731 77.0503 55.0095 75.123 55.0095C65.4863 55.0095 56.8133 61.7551 56.8133 72.3555C56.8133 74.2828 56.8133 75.2464 56.8133 77.1738C53.9223 77.1738 51.0313 80.0648 49.104 82.9558C46.213 79.1011 41.3947 76.2101 35.6127 76.2101C27.9034 75.2464 22.1214 80.0648 19.2304 86.8104H18.2667C11.5211 86.8104 5.73907 91.6287 5.73907 98.3744C5.73907 105.12 10.5574 110.902 17.3031 110.902C21.1577 110.902 24.0487 109.938 25.976 107.047C27.9034 108.011 30.7944 108.975 33.6854 109.938C36.5764 115.72 42.3583 120.539 49.104 120.539C55.8497 120.539 62.5953 116.684 65.4863 110.902C67.4136 111.866 69.341 112.829 72.232 112.829C73.1956 112.829 74.1593 112.829 74.1593 112.829C78.014 118.611 84.7596 122.466 92.4689 122.466C100.178 122.466 105.96 119.575 110.779 114.757C113.67 120.539 119.452 124.393 126.197 124.393C132.943 124.393 139.689 120.539 142.58 114.757C146.434 116.684 150.289 117.648 154.143 117.648C162.816 117.648 171.489 113.793 176.308 108.011C177.271 108.011 179.199 108.975 180.162 108.975C186.908 108.975 193.654 104.156 193.654 96.4471C194.617 88.7378 188.835 82.9558 182.09 82.9558Z" fill="#008DD4"/>
<path d="M182.09 82.9558C180.163 77.1738 177.272 72.3554 172.453 68.5008C173.417 65.6098 174.381 61.7551 174.381 58.8641C175.344 40.5545 160.889 26.0995 143.543 25.1359C130.052 24.1722 117.524 32.8452 112.706 44.4092C111.742 44.4092 110.779 44.4092 109.815 44.4092C98.251 43.4455 87.6507 48.2638 81.8687 56.9368C79.9414 55.9731 78.014 55.9731 76.0867 55.9731C66.4501 55.9731 57.7771 62.7188 57.7771 73.3191C57.7771 75.2464 57.7771 76.2101 57.7771 78.1374C53.9224 78.1374 51.0314 80.0648 49.1041 82.9558C46.2131 79.1011 41.3948 76.2101 36.5764 76.2101C28.8671 76.2101 22.1215 80.0648 20.1941 86.8104H19.2305C12.4848 86.8104 6.70282 91.6287 6.70282 98.3744C6.70282 105.12 11.5211 110.902 18.2668 110.902C22.1215 110.902 25.0125 109.938 26.9398 107.047C28.8671 108.011 31.7581 108.975 34.6491 109.938C37.5401 115.72 43.3221 120.539 50.0677 120.539C56.8134 120.539 63.5591 116.684 66.4501 110.902C68.3774 111.866 70.3047 112.829 73.1957 112.829C74.1594 112.829 75.123 112.829 75.123 112.829C78.9777 118.611 85.7234 122.466 93.4327 122.466C101.142 122.466 106.924 119.575 111.742 114.757C114.633 120.539 120.415 124.393 127.161 124.393C133.907 124.393 140.652 120.539 143.543 114.757C147.398 116.684 151.253 117.648 155.107 117.648C163.78 117.648 172.453 113.793 177.272 108.011C178.235 108.011 180.163 108.975 181.126 108.975C187.872 108.975 194.618 104.156 194.618 96.4471C194.618 89.7014 189.799 82.9558 182.09 82.9558Z" fill="url(#paint0_linear_2_1138)"/>
<path d="M130.052 64.6462C131.015 61.7552 131.015 58.8642 131.015 55.0095C131.015 35.7362 115.597 19.3539 95.3599 19.3539C79.9412 19.3539 66.4499 30.9179 62.5952 46.3365H61.6316C53.9223 46.3365 47.1766 50.1912 43.3219 55.9732C40.4309 55.0095 38.5036 55.0095 36.5763 55.0095C26.9396 55.0095 19.2303 62.7188 19.2303 72.3555C19.2303 81.9921 26.9396 89.7015 36.5763 89.7015C40.4309 89.7015 44.2856 87.7741 47.1766 85.8468C51.0313 88.7378 55.8496 90.6651 61.6316 90.6651C67.4136 90.6651 73.1956 88.7378 77.0502 84.8831C82.8322 88.7378 89.5779 90.6651 97.2872 90.6651C104.033 90.6651 110.778 88.7378 115.597 85.8468C118.488 88.7378 121.379 90.6651 126.197 90.6651C133.906 90.6651 139.688 84.8831 139.688 77.1738C138.725 71.3918 134.87 66.5735 130.052 64.6462Z" fill="#4FC5FF"/>
<path d="M131.016 64.6462C131.979 61.7552 131.979 58.8642 131.979 55.0095C131.979 35.7362 116.561 19.3539 96.3236 19.3539C79.9413 19.3539 66.45 30.9179 62.5953 46.3365H61.6317C53.9223 46.3365 47.1767 50.1912 43.322 55.9732C41.3947 55.9732 39.4674 55.0095 36.5764 55.0095C27.9034 55.0095 20.1941 62.7188 20.1941 72.3555C20.1941 81.9921 27.9034 89.7015 37.54 89.7015C41.3947 89.7015 45.2494 87.7741 48.1403 85.8468C51.995 88.7378 56.8133 90.6651 62.5953 90.6651C68.3773 90.6651 74.1593 88.7378 78.014 84.8831C82.8323 88.7378 89.5779 90.6651 97.2873 90.6651C104.033 90.6651 110.779 88.7378 115.597 85.8468C118.488 88.7378 121.379 90.6651 126.197 90.6651C133.907 90.6651 139.689 84.8831 139.689 77.1738C138.725 71.3918 135.834 66.5735 131.016 64.6462Z" fill="url(#paint1_linear_2_1138)"/>
<path d="M150.289 88.7378L155.107 132.103L176.308 119.575L175.344 171.613L163.78 138.848L146.434 152.34L125.234 88.7378H150.289Z" fill="#FFE3AB"/>
<path d="M150.289 88.7378L157.035 133.066L176.308 119.575L175.344 171.613L165.708 138.848L147.398 151.376L126.197 88.7378H150.289Z" fill="url(#paint2_linear_2_1138)"/>
<path d="M182.09 58.8642H181.126C179.199 53.0822 173.417 49.2275 166.671 49.2275C164.744 49.2275 162.817 49.2275 160.889 50.1912C158.962 44.4092 153.18 40.5545 147.398 40.5545C141.616 40.5545 135.834 44.4092 133.907 50.1912C132.943 50.1912 131.979 50.1912 131.979 50.1912C125.234 50.1912 119.452 55.0095 119.452 61.7552C118.488 61.7552 117.524 61.7552 116.561 61.7552C108.851 61.7552 102.106 68.5008 102.106 76.2101C102.106 83.9194 108.851 90.6651 116.561 90.6651C117.524 96.4471 123.306 101.265 129.088 101.265C133.907 101.265 137.761 98.3744 140.652 94.5198C143.543 100.302 149.325 103.193 156.071 103.193C163.78 103.193 169.562 98.3744 172.453 92.5924C175.344 94.5198 178.235 94.5198 181.126 94.5198C190.763 94.5198 198.472 86.8104 198.472 77.1738C198.472 67.5371 191.727 58.8642 182.09 58.8642Z" fill="#4FC5FF"/>
<path d="M183.054 58.8642H182.09C180.163 53.0822 174.381 49.2275 167.635 49.2275C165.708 49.2275 163.78 49.2275 161.853 50.1912C159.926 44.4092 154.144 40.5545 148.362 40.5545C142.58 40.5545 136.798 44.4092 134.87 50.1912C133.907 50.1912 132.943 50.1912 132.943 50.1912C126.197 50.1912 120.415 55.0095 120.415 61.7552C119.452 61.7552 118.488 61.7552 117.524 61.7552C109.815 61.7552 103.069 68.5008 103.069 76.2101C103.069 83.9194 109.815 90.6651 117.524 90.6651C118.488 96.4471 124.27 101.265 130.052 101.265C134.87 101.265 138.725 98.3744 141.616 94.5198C144.507 100.302 150.289 103.193 157.035 103.193C164.744 103.193 170.526 98.3744 173.417 92.5924C176.308 94.5198 179.199 94.5198 182.09 94.5198C191.727 94.5198 199.436 86.8104 199.436 77.1738C200.4 66.5735 192.69 58.8642 183.054 58.8642Z" fill="url(#paint3_linear_2_1138)"/>
<path d="M167.635 23.2086C166.671 23.2086 165.708 23.2086 165.708 23.2086C162.817 14.5356 155.107 8.75359 145.471 8.75359C140.652 8.75359 136.798 9.71725 133.907 12.6082C131.979 5.86259 125.234 2.00793 118.488 2.00793C109.815 2.00793 103.069 7.78992 102.106 15.4992C100.178 13.5719 97.2873 12.6082 93.4327 12.6082C84.7597 12.6082 78.9777 17.4266 78.014 24.1722C66.4501 24.1722 57.7771 32.8452 57.7771 44.4092C57.7771 55.9732 66.4501 64.6462 78.014 64.6462C81.8687 64.6462 84.7597 63.6825 87.6507 61.7552C88.6144 68.5008 94.3963 74.2828 102.106 74.2828C107.888 74.2828 112.706 71.3918 115.597 66.5735C119.452 72.3555 127.161 77.1738 135.834 77.1738C146.434 77.1738 156.071 70.4282 158.962 59.8278C161.853 60.7915 164.744 61.7552 167.635 61.7552C178.235 61.7552 186.908 53.0822 186.908 42.4819C186.908 31.8816 178.235 23.2086 167.635 23.2086Z" fill="#63CCFF"/>
<path d="M168.598 24.1722C167.635 24.1722 166.671 24.1722 166.671 24.1722C162.816 15.4992 155.107 9.71724 145.471 9.71724C140.652 9.71724 136.798 10.6809 133.907 13.5719C131.979 6.82625 125.234 2.97159 118.488 2.97159C109.815 2.97159 103.069 8.75358 102.106 16.4629C100.178 14.5356 97.2873 13.5719 93.4326 13.5719C86.687 13.5719 79.9413 19.3539 79.9413 26.0996C67.4136 25.1359 58.7407 33.8089 58.7407 45.3728C58.7407 56.9368 67.4136 65.6098 78.9776 65.6098C82.8323 65.6098 85.7233 64.6462 88.6143 62.7188C89.5779 69.4645 95.3599 75.2465 103.069 75.2465C108.851 75.2465 113.67 72.3555 116.561 67.5371C120.415 73.3191 128.125 77.1738 135.834 77.1738C146.434 77.1738 156.071 70.4281 158.962 59.8278C161.853 60.7915 164.744 61.7552 167.635 61.7552C178.235 61.7552 186.908 53.0822 186.908 42.4819C187.872 32.8452 179.199 24.1722 168.598 24.1722Z" fill="#007FC9"/>
<path d="M104.997 71.3918C103.069 71.3918 102.106 71.3918 100.178 72.3555C98.2511 62.7188 89.5781 55.0095 78.9778 54.0458C68.3775 53.0822 59.7045 59.8278 56.8135 69.4645C48.1405 68.5008 40.4312 75.2465 39.4675 83.9195C39.4675 92.5924 45.2495 100.302 54.8861 100.302C59.7045 100.302 63.5591 99.3381 66.4501 96.4471C69.3411 98.3744 73.1958 99.3381 77.0504 99.3381C83.7961 99.3381 89.5781 97.4108 94.3964 92.5924C96.3237 95.4834 100.178 97.4108 104.033 97.4108C111.742 97.4108 117.524 92.5924 117.524 84.8831C117.524 78.1375 112.706 72.3555 104.997 71.3918Z" fill="#6ED8FF"/>
<path d="M105.96 71.3918C104.033 71.3918 103.069 71.3918 101.142 72.3555C99.2147 62.7188 90.5417 55.0095 79.9414 54.0458C69.3411 53.0822 60.6681 59.8278 57.7771 69.4645C49.1041 69.4645 41.3948 75.2465 41.3948 84.8831C41.3948 93.5561 47.1768 101.265 56.8134 101.265C61.6318 101.265 65.4864 100.302 68.3774 97.4108C71.2684 99.3381 75.1231 100.302 78.9777 100.302C85.7234 100.302 91.5054 98.3744 96.3237 93.5561C98.251 96.4471 102.106 98.3744 105.96 98.3744C113.67 98.3744 119.452 93.5561 119.452 85.8468C118.488 78.1375 112.706 72.3555 105.96 71.3918Z" fill="#008CDE"/>
<path d="M62.5955 147.521C62.5955 151.376 59.7045 154.267 55.8498 154.267C51.9952 154.267 49.1042 151.376 49.1042 147.521C49.1042 140.776 55.8498 132.103 55.8498 132.103H56.8135C56.8135 132.103 56.8135 132.103 56.8135 133.066C57.7772 134.03 62.5955 142.703 62.5955 147.521Z" fill="#B3EDFF"/>
<path d="M63.5592 147.521C63.5592 151.376 60.6682 154.267 56.8136 154.267C52.9589 154.267 50.0679 151.376 50.0679 147.521C50.0679 141.739 56.8136 132.103 56.8136 132.103C56.8136 132.103 63.5592 141.739 63.5592 147.521Z" fill="#61D7FF"/>
<path d="M40.4312 118.611C40.4312 121.502 37.5402 124.393 34.6492 124.393C31.7582 124.393 28.8672 121.502 28.8672 118.611C28.8672 113.793 34.6492 107.047 34.6492 107.047C36.5765 108.011 40.4312 114.757 40.4312 118.611Z" fill="#B3EDFF"/>
<path d="M40.4312 118.611C40.4312 121.502 37.5402 124.393 34.6492 124.393C31.7582 124.393 29.8309 121.502 29.8309 118.611C29.8309 113.793 35.6129 106.084 35.6129 106.084C35.6129 106.084 40.4312 113.793 40.4312 118.611Z" fill="#61D7FF"/>
<path d="M189.799 97.4108C189.799 100.302 187.872 102.229 184.981 102.229C182.09 102.229 179.199 100.302 179.199 97.4108C179.199 92.5924 184.981 85.8468 184.981 85.8468C185.945 87.7741 189.799 93.5561 189.799 97.4108Z" fill="#B3EDFF"/>
<path d="M189.799 97.4108C189.799 100.302 187.872 102.229 184.981 102.229C182.09 102.229 180.163 100.302 180.163 97.4108C180.163 93.5561 184.981 85.8468 184.981 85.8468C184.981 85.8468 189.799 92.5924 189.799 97.4108Z" fill="#61D7FF"/>
<path d="M121.379 164.867C121.379 167.758 119.452 169.686 116.561 169.686C113.67 169.686 110.779 167.758 110.779 164.867C110.779 160.049 116.561 153.303 116.561 153.303C118.488 155.231 121.379 161.013 121.379 164.867Z" fill="#B3EDFF"/>
<path d="M122.343 164.867C122.343 167.758 120.415 169.686 117.524 169.686C114.633 169.686 112.706 167.758 112.706 164.867C112.706 161.013 117.524 153.303 117.524 153.303C117.524 153.303 122.343 161.013 122.343 164.867Z" fill="#61D7FF"/>
<path d="M104.033 136.921C104.033 141.739 100.178 145.594 95.3601 145.594C91.5054 144.63 87.6508 141.739 87.6508 136.921C87.6508 129.212 96.3238 118.611 96.3238 118.611H97.2874C97.2874 118.611 97.2874 118.611 97.2874 119.575C98.2511 121.502 104.033 131.139 104.033 136.921Z" fill="#B3EDFF"/>
<path d="M104.997 136.921C104.997 141.739 101.142 145.594 96.3238 145.594C91.5054 145.594 87.6508 141.739 87.6508 136.921C87.6508 130.175 96.3238 118.611 96.3238 118.611C96.3238 118.611 104.997 130.175 104.997 136.921Z" fill="#61D7FF"/>
<defs>
<linearGradient id="paint0_linear_2_1138" x1="58.1172" y1="41.8362" x2="155.983" y2="139.702" gradientUnits="userSpaceOnUse">
<stop stop-color="#1062A1"/>
<stop offset="1" stop-color="#0A4D80"/>
</linearGradient>
<linearGradient id="paint1_linear_2_1138" x1="19.8375" y1="55.4181" x2="139.053" y2="55.4181" gradientUnits="userSpaceOnUse">
<stop stop-color="#076BBA"/>
<stop offset="1" stop-color="#0060AB"/>
</linearGradient>
<linearGradient id="paint2_linear_2_1138" x1="168.521" y1="153.655" x2="146.673" y2="95.1767" gradientUnits="userSpaceOnUse">
<stop stop-color="#FFD45C"/>
<stop offset="1" stop-color="#FF9D00"/>
</linearGradient>
<linearGradient id="paint3_linear_2_1138" x1="102.234" y1="71.5441" x2="200.201" y2="71.5441" gradientUnits="userSpaceOnUse">
<stop stop-color="#076BBA"/>
<stop offset="1" stop-color="#0060AB"/>
</linearGradient>
</defs>
</svg>
