<svg width="208" height="213" viewBox="0 0 208 213" fill="none" xmlns="http://www.w3.org/2000/svg">
<path d="M112.476 27.4343C112.476 39.0132 100.897 49.3056 100.897 49.3056C100.897 49.3056 90.6051 39.0132 90.6051 27.4343C90.6051 15.8554 102.184 5.56297 102.184 5.56297C102.184 5.56297 112.476 15.8554 112.476 27.4343Z" fill="#FFE3AB"/>
<path d="M112.476 176.674C112.476 188.253 100.897 198.545 100.897 198.545C100.897 198.545 90.6051 188.253 90.6051 176.674C90.6051 165.095 102.184 154.803 102.184 154.803C102.184 154.803 112.476 165.095 112.476 176.674Z" fill="#FFE3AB"/>
<path d="M27.5642 91.7617C39.1431 91.7617 49.4355 103.341 49.4355 103.341C49.4355 103.341 39.1431 113.633 27.5642 113.633C15.9853 113.633 5.69287 102.054 5.69287 102.054C5.69287 102.054 15.9853 91.7617 27.5642 91.7617Z" fill="#FFE3AB"/>
<path d="M176.804 91.7617C188.383 91.7617 198.675 103.341 198.675 103.341C198.675 103.341 189.669 114.92 176.804 114.92C165.225 114.92 154.932 103.341 154.932 103.341C154.932 103.341 165.225 91.7617 176.804 91.7617Z" fill="#FFE3AB"/>
<path d="M41.7163 147.083C49.4356 139.364 64.8742 139.364 64.8742 139.364C64.8742 139.364 64.8742 154.803 57.1549 162.522C48.149 171.528 33.997 170.241 33.997 170.241C33.997 170.241 32.7105 156.089 41.7163 147.083Z" fill="#FFE3AB"/>
<path d="M147.213 41.5863C156.219 32.5805 170.371 33.867 170.371 33.867C170.371 33.867 171.657 48.019 162.652 57.0249C154.932 64.7442 139.494 64.7442 139.494 64.7442C139.494 64.7442 139.494 49.3056 147.213 41.5863Z" fill="#FFE3AB"/>
<path d="M147.213 162.522C138.207 153.516 139.494 139.364 139.494 139.364C139.494 139.364 153.646 138.077 162.652 147.083C171.657 156.089 170.371 170.241 170.371 170.241C170.371 170.241 156.219 171.528 147.213 162.522Z" fill="#FFE3AB"/>
<path d="M41.7163 57.0249C32.7105 48.019 33.997 33.867 33.997 33.867C33.997 33.867 48.149 32.5805 57.1549 41.5863C64.8741 49.3056 64.8741 64.7442 64.8741 64.7442C64.8741 64.7442 49.4356 64.7442 41.7163 57.0249Z" fill="#FFE3AB"/>
<path d="M167.798 139.364C158.793 135.504 154.933 125.212 154.933 125.212C154.933 125.212 165.225 120.066 174.231 123.925C183.237 127.785 187.097 138.077 187.097 138.077C187.097 138.077 176.804 141.937 167.798 139.364Z" fill="#FFE3AB"/>
<path d="M30.1376 81.4693C21.1317 77.6096 17.2721 67.3172 17.2721 67.3172C17.2721 67.3172 27.5645 62.1711 36.5703 64.7441C45.5761 68.6038 49.4358 78.8962 49.4358 78.8962C49.4358 78.8962 37.8569 85.3289 30.1376 81.4693Z" fill="#FFE3AB"/>
<path d="M81.5996 30.0074C85.4593 39.0132 80.3131 49.3056 80.3131 49.3056C80.3131 49.3056 68.7342 45.4459 64.8745 36.4401C62.3014 27.4343 67.4476 17.1419 67.4476 17.1419C67.4476 17.1419 77.74 21.0015 81.5996 30.0074Z" fill="#FFE3AB"/>
<path d="M139.494 167.668C143.354 176.674 138.207 186.966 138.207 186.966C138.207 186.966 126.628 183.107 124.055 174.101C120.196 165.095 125.342 154.802 125.342 154.802C125.342 154.802 135.634 158.662 139.494 167.668Z" fill="#FFE3AB"/>
<path d="M30.1376 122.639C39.1434 118.779 49.4358 123.925 49.4358 123.925C49.4358 123.925 45.5762 135.504 36.5703 138.077C27.5645 141.937 17.2721 136.791 17.2721 136.791C17.2721 136.791 21.1318 126.498 30.1376 122.639Z" fill="#FFE3AB"/>
<path d="M167.798 64.7442C176.804 60.8845 187.097 66.0307 187.097 66.0307C187.097 66.0307 183.237 77.6096 174.231 80.1827C166.512 85.3289 154.933 80.1827 154.933 80.1827C154.933 80.1827 158.793 68.6038 167.798 64.7442Z" fill="#FFE3AB"/>
<path d="M64.8744 167.668C68.7341 158.662 79.0265 154.802 79.0265 154.802C79.0265 154.802 84.1726 165.095 80.313 174.101C76.4534 183.107 66.161 186.966 66.161 186.966C66.161 186.966 62.3013 176.674 64.8744 167.668Z" fill="#FFE3AB"/>
<path d="M122.769 30.0074C126.629 21.0015 136.921 17.1419 136.921 17.1419C136.921 17.1419 142.067 27.4343 138.208 36.4401C134.348 45.4459 124.056 49.3056 124.056 49.3056C124.056 49.3056 118.909 37.7267 122.769 30.0074Z" fill="#FFE3AB"/>
<path d="M113.763 28.7208C113.763 40.2998 103.471 49.3056 103.471 49.3056C103.471 49.3056 91.8918 40.2998 91.8918 28.7208C91.8918 15.8554 103.471 6.84952 103.471 6.84952C103.471 6.84952 113.763 15.8554 113.763 28.7208Z" fill="url(#paint0_linear_2_192)"/>
<path d="M113.763 177.96C113.763 189.539 102.184 199.832 102.184 199.832C102.184 199.832 90.6051 190.826 90.6051 177.96C90.6051 166.381 102.184 156.089 102.184 156.089C102.184 156.089 113.763 166.381 113.763 177.96Z" fill="url(#paint1_linear_2_192)"/>
<path d="M28.8508 91.7617C40.4298 91.7617 49.4356 103.341 49.4356 103.341C49.4356 103.341 40.4298 113.633 28.8508 113.633C15.9854 113.633 6.97952 103.341 6.97952 103.341C6.97952 103.341 15.9854 91.7617 28.8508 91.7617Z" fill="url(#paint2_linear_2_192)"/>
<path d="M178.09 91.7617C189.669 91.7617 199.962 103.341 199.962 103.341C199.962 103.341 190.956 114.92 178.09 114.92C166.511 114.92 156.219 103.341 156.219 103.341C156.219 103.341 166.511 91.7617 178.09 91.7617Z" fill="url(#paint3_linear_2_192)"/>
<path d="M43.0029 148.37C50.7222 139.364 64.8742 140.65 64.8742 140.65C64.8742 140.65 66.1608 154.803 57.155 163.808C48.1491 172.814 33.9971 171.528 33.9971 171.528C33.9971 171.528 33.9971 156.089 43.0029 148.37Z" fill="url(#paint4_linear_2_192)"/>
<path d="M148.5 42.8729C157.505 33.867 171.657 35.1536 171.657 35.1536C171.657 35.1536 172.944 49.3056 163.938 58.3114C154.932 66.0307 140.78 64.7442 140.78 64.7442C140.78 64.7442 139.494 50.5921 148.5 42.8729Z" fill="url(#paint5_linear_2_192)"/>
<path d="M148.5 163.808C139.494 154.803 140.78 140.65 140.78 140.65C140.78 140.65 154.932 139.364 163.938 148.37C172.944 157.376 171.657 171.528 171.657 171.528C171.657 171.528 156.219 172.814 148.5 163.808Z" fill="url(#paint6_linear_2_192)"/>
<path d="M43.0029 58.3114C33.9971 49.3056 35.2837 35.1536 35.2837 35.1536C35.2837 35.1536 49.4357 33.867 58.4415 42.8729C66.1608 50.5921 64.8743 64.7442 64.8743 64.7442C64.8743 64.7442 50.7222 66.0307 43.0029 58.3114Z" fill="url(#paint7_linear_2_192)"/>
<path d="M169.085 139.364C160.079 135.504 156.219 125.212 156.219 125.212C156.219 125.212 166.511 120.066 175.517 123.925C184.523 127.785 188.383 138.077 188.383 138.077C188.383 138.077 178.09 143.224 169.085 139.364Z" fill="url(#paint8_linear_2_192)"/>
<path d="M30.1376 82.7558C21.1318 78.8962 17.2721 68.6038 17.2721 68.6038C17.2721 68.6038 27.5645 63.4576 36.5703 67.3172C45.5762 71.1769 49.4358 81.4693 49.4358 81.4693C49.4358 81.4693 39.1434 86.6155 30.1376 82.7558Z" fill="url(#paint9_linear_2_192)"/>
<path d="M82.8861 30.0074C86.7457 39.0132 81.5996 49.3056 81.5996 49.3056C81.5996 49.3056 70.0206 45.4459 67.4475 36.4401C62.3013 28.7208 67.4475 18.4284 67.4475 18.4284C67.4475 18.4284 79.0265 22.2881 82.8861 30.0074Z" fill="url(#paint10_linear_2_192)"/>
<path d="M139.494 168.955C143.354 177.96 138.207 188.253 138.207 188.253C138.207 188.253 126.628 184.393 124.055 175.387C120.196 166.381 125.342 156.089 125.342 156.089C125.342 156.089 136.921 159.949 139.494 168.955Z" fill="url(#paint11_linear_2_192)"/>
<path d="M30.1376 123.925C39.1434 120.066 49.4358 125.212 49.4358 125.212C49.4358 125.212 45.5762 136.791 36.5703 139.364C27.5645 143.224 17.2721 138.077 17.2721 138.077C17.2721 138.077 22.4183 127.785 30.1376 123.925Z" fill="url(#paint12_linear_2_192)"/>
<path d="M169.085 66.0307C178.09 62.1711 188.383 67.3172 188.383 67.3172C188.383 67.3172 184.523 78.8962 175.517 81.4693C166.511 85.3289 156.219 80.1827 156.219 80.1827C156.219 80.1827 160.079 69.8903 169.085 66.0307Z" fill="url(#paint13_linear_2_192)"/>
<path d="M66.1607 168.955C70.0204 159.949 80.3127 156.089 80.3127 156.089C80.3127 156.089 85.4589 166.381 81.5993 175.387C77.7396 184.393 67.4473 188.253 67.4473 188.253C67.4473 188.253 62.3011 177.96 66.1607 168.955Z" fill="url(#paint14_linear_2_192)"/>
<path d="M124.055 30.0074C127.915 21.0015 138.207 17.1419 138.207 17.1419C138.207 17.1419 143.354 27.4343 139.494 36.4401C135.634 45.4459 125.342 49.3056 125.342 49.3056C125.342 49.3056 120.196 39.0132 124.055 30.0074Z" fill="url(#paint15_linear_2_192)"/>
<path d="M162.652 102.054C162.652 135.504 135.634 162.522 102.184 162.522C68.734 162.522 41.7165 135.504 41.7165 102.054C41.7165 68.6038 68.734 41.5863 102.184 41.5863C135.634 41.5863 162.652 68.6038 162.652 102.054Z" fill="#FFE3AB"/>
<path d="M163.939 103.341C163.939 136.791 136.921 163.808 103.471 163.808C70.0205 163.808 43.0031 136.791 43.0031 103.341C43.0031 69.8904 70.0205 41.5863 103.471 41.5863C136.921 41.5863 163.939 69.8904 163.939 103.341Z" fill="url(#paint16_linear_2_192)"/>
<defs>
<linearGradient id="paint0_linear_2_192" x1="92.3999" y1="17.4622" x2="113.894" y2="38.9566" gradientUnits="userSpaceOnUse">
<stop stop-color="#FFD45C"/>
<stop offset="1" stop-color="#FF9D00"/>
</linearGradient>
<linearGradient id="paint1_linear_2_192" x1="92.4011" y1="167.263" x2="113.893" y2="188.756" gradientUnits="userSpaceOnUse">
<stop stop-color="#FFD45C"/>
<stop offset="1" stop-color="#FF9D00"/>
</linearGradient>
<linearGradient id="paint2_linear_2_192" x1="17.4945" y1="92.3573" x2="38.9888" y2="113.854" gradientUnits="userSpaceOnUse">
<stop stop-color="#FFD45C"/>
<stop offset="1" stop-color="#FF9D00"/>
</linearGradient>
<linearGradient id="paint3_linear_2_192" x1="167.3" y1="92.3573" x2="188.794" y2="113.854" gradientUnits="userSpaceOnUse">
<stop stop-color="#FFD45C"/>
<stop offset="1" stop-color="#FF9D00"/>
</linearGradient>
<linearGradient id="paint4_linear_2_192" x1="42.4309" y1="148.324" x2="57.9352" y2="163.829" gradientUnits="userSpaceOnUse">
<stop stop-color="#FFD45C"/>
<stop offset="1" stop-color="#FF9D00"/>
</linearGradient>
<linearGradient id="paint5_linear_2_192" x1="148.358" y1="42.3967" x2="163.863" y2="57.901" gradientUnits="userSpaceOnUse">
<stop stop-color="#FFD45C"/>
<stop offset="1" stop-color="#FF9D00"/>
</linearGradient>
<linearGradient id="paint6_linear_2_192" x1="140.947" y1="140.908" x2="171.275" y2="171.237" gradientUnits="userSpaceOnUse">
<stop stop-color="#FFD45C"/>
<stop offset="1" stop-color="#FF9D00"/>
</linearGradient>
<linearGradient id="paint7_linear_2_192" x1="35.0196" y1="34.9809" x2="65.3496" y2="65.3109" gradientUnits="userSpaceOnUse">
<stop stop-color="#FFD45C"/>
<stop offset="1" stop-color="#FF9D00"/>
</linearGradient>
<linearGradient id="paint8_linear_2_192" x1="161.138" y1="120.566" x2="183.552" y2="142.98" gradientUnits="userSpaceOnUse">
<stop stop-color="#FFBB31"/>
<stop offset="1" stop-color="#FF9D00"/>
</linearGradient>
<linearGradient id="paint9_linear_2_192" x1="22.7348" y1="63.2363" x2="45.149" y2="85.6505" gradientUnits="userSpaceOnUse">
<stop stop-color="#FFBB31"/>
<stop offset="1" stop-color="#FF9D00"/>
</linearGradient>
<linearGradient id="paint10_linear_2_192" x1="63.2753" y1="22.6959" x2="85.6921" y2="45.1127" gradientUnits="userSpaceOnUse">
<stop stop-color="#FFBB31"/>
<stop offset="1" stop-color="#FF9D00"/>
</linearGradient>
<linearGradient id="paint11_linear_2_192" x1="120.597" y1="161.094" x2="143.017" y2="183.514" gradientUnits="userSpaceOnUse">
<stop stop-color="#FFBB31"/>
<stop offset="1" stop-color="#FF9D00"/>
</linearGradient>
<linearGradient id="paint12_linear_2_192" x1="27.3059" y1="125.13" x2="40.5857" y2="138.409" gradientUnits="userSpaceOnUse">
<stop stop-color="#FFBB31"/>
<stop offset="1" stop-color="#FF9D00"/>
</linearGradient>
<linearGradient id="paint13_linear_2_192" x1="165.707" y1="67.7971" x2="178.992" y2="81.082" gradientUnits="userSpaceOnUse">
<stop stop-color="#FFBB31"/>
<stop offset="1" stop-color="#FF9D00"/>
</linearGradient>
<linearGradient id="paint14_linear_2_192" x1="67.8397" y1="165.665" x2="81.1246" y2="178.95" gradientUnits="userSpaceOnUse">
<stop stop-color="#FFBB31"/>
<stop offset="1" stop-color="#FF9D00"/>
</linearGradient>
<linearGradient id="paint15_linear_2_192" x1="125.163" y1="27.2644" x2="138.449" y2="40.5506" gradientUnits="userSpaceOnUse">
<stop stop-color="#FFBB31"/>
<stop offset="1" stop-color="#FF9D00"/>
</linearGradient>
<linearGradient id="paint16_linear_2_192" x1="59.9662" y1="59.9286" x2="146.323" y2="146.286" gradientUnits="userSpaceOnUse">
<stop stop-color="#FFD45C"/>
<stop offset="1" stop-color="#FF9D00"/>
</linearGradient>
</defs>
</svg>
